<?xml version="1.0" encoding="utf-8"?>
<!-- Svg Vector Icons : http://www.onlinewebfonts.com/icon -->
<!DOCTYPE svg PUBLIC "-//W3C//DTD SVG 1.1//EN" "http://www.w3.org/Graphics/SVG/1.1/DTD/svg11.dtd">
<svg version="1.1" xmlns="http://www.w3.org/2000/svg" xmlns:xlink="http://www.w3.org/1999/xlink" x="0px" y="0px" viewBox="0 0 1000 1000" enable-background="new 0 0 1000 1000" xml:space="preserve">
<metadata> Svg Vector Icons : http://www.onlinewebfonts.com/icon </metadata>
<g><path d="M885.7,260.6v409.8c0,54.5-26.9,87-46.5,110.7c-16.4,19.9-25,31.1-25,48.7v125c0,19.4-15.7,35.1-35.1,35.1c-19.4,0-35.1-15.7-35.1-35.1v-125c0-43.7,22.8-71.3,41.1-93.3c17-20.5,30.4-36.7,30.4-66V260.6c0-21.9-18.8-42.5-38.6-42.5c-23.1,0-28,3.6-28.2,3.7c-4.6,6.2-4.5,39.9-4.4,67c0.1,13.3,0.1,28.1-0.1,44.3c-0.3,19.2-14.9,33.5-35.3,34.6c-19.2-0.1-34.8-15.8-34.8-35.1V184.1c0-21.5-15.6-37.7-36.2-37.7c-18.9,0-32.8,14.1-34.5,34.2V321c0,19.4-15.7,35.1-35.1,35.1c-19.4,0-35.1-15.7-35.1-35.1l0,0V180c0-0.2-0.1-0.4-0.1-0.7v-54.2c0-4.6-1-45-33.2-45c-31.6,0-36.3,28.2-36.3,45v49.3c0,2-0.8,3.8-1.1,5.7V362c0,19.4-15.7,35.1-35.1,35.1c-19.4,0-35.1-15.7-35.1-35.1l0,0V173.8c-3.4-13.6-13.2-27.4-32.7-27.4c-20.1,0-37,18.3-37,40v234.9c0,0.5-0.4,0.9-0.4,1.4v77.2c0,19.4-15.7,35.1-35.1,35.1c-19.4,0-35.1-15.7-35.1-35.1v-58.5c-12.3-4.5-30.2-8.1-40.5-5.8c-8.3,1.6-16.6,8.9-21.8,19c-4.1,7.9-9.7,24.3-0.6,44.7L308.3,760c1.1,2.5,1.9,5,2.5,7.6c3.9,19.3,21.9,32,41.2,30.2c9.7-1.3,19.7,2.1,27.1,8.8c7.4,6.7,11.6,16.1,11.6,26.1v122.3c0,19.4-15.7,35.1-35.1,35.1s-35.1-15.7-35.1-35.1v-90.2c-37.6-9.7-68-39.3-77.6-78.9L125.3,528.1c-15.4-34.8-14.5-73.1,2.2-105.7c15-29,41.2-49.7,70.2-55.6c14.7-3,34.6-2.2,54.4,1.8v-50.5c0-0.7,0.4-1.3,0.4-2V186.4c0-60.7,48.1-110.1,107.1-110.1c14,0,27.5,2.8,39.7,7.9C413.2,39,450.7,10,499.8,10c46.8,0,83.6,29.6,97.4,74.4c12.5-5.3,26.2-8.1,40.6-8.1c48.3,0,88.2,31.1,101.5,75.2c12.8-2.8,25.9-3.4,37.6-3.4C835.9,148,885.7,199.6,885.7,260.6L885.7,260.6z"/></g>
</svg>